<?xml version="1.0" encoding="UTF-8" standalone="no"?>
<!DOCTYPE svg PUBLIC "-//W3C//DTD SVG 1.1//EN"
 "http://www.w3.org/Graphics/SVG/1.1/DTD/svg11.dtd">
<!-- Generated by graphviz version 2.30.1 (20180420.1509)
 -->
<!-- Title: snakemake_dag Pages: 1 -->
<svg width="1384pt" height="260pt"
 viewBox="0.00 0.00 1384.00 260.00" xmlns="http://www.w3.org/2000/svg" xmlns:xlink="http://www.w3.org/1999/xlink">
<g id="graph0" class="graph" transform="scale(1 1) rotate(0) translate(4 256)">
<title>snakemake_dag</title>
<polygon fill="white" stroke="white" points="-4,5 -4,-256 1381,-256 1381,5 -4,5"/>
<!-- 0 -->
<g id="node1" class="node"><title>0</title>
<path fill="none" stroke="#d8ac56" stroke-width="2" stroke-dasharray="5,2" d="M653,-36C653,-36 623,-36 623,-36 617,-36 611,-30 611,-24 611,-24 611,-12 611,-12 611,-6 617,-0 623,-0 623,-0 653,-0 653,-0 659,-0 665,-6 665,-12 665,-12 665,-24 665,-24 665,-30 659,-36 653,-36"/>
<text text-anchor="middle" x="638" y="-15.5" font-family="sans" font-size="10.00">target</text>
</g>
<!-- 1 -->
<g id="node2" class="node"><title>1</title>
<path fill="none" stroke="#d85656" stroke-width="2" stroke-dasharray="5,2" d="M114,-252C114,-252 12,-252 12,-252 6,-252 0,-246 0,-240 0,-240 0,-228 0,-228 0,-222 6,-216 12,-216 12,-216 114,-216 114,-216 120,-216 126,-222 126,-228 126,-228 126,-240 126,-240 126,-246 120,-252 114,-252"/>
<text text-anchor="middle" x="63" y="-237" font-family="sans" font-size="10.00">fastqc</text>
<text text-anchor="middle" x="63" y="-226" font-family="sans" font-size="10.00">sample: SRR12365592</text>
</g>
<!-- 1&#45;&gt;0 -->
<g id="edge1" class="edge"><title>1&#45;&gt;0</title>
<path fill="none" stroke="grey" stroke-width="2" d="M78.6461,-215.846C110.674,-181.958 187.579,-106.715 269,-72 382.588,-23.5705 531.826,-17.8897 600.483,-18.1379"/>
<polygon fill="grey" stroke="grey" points="600.764,-21.6402 610.792,-18.223 600.821,-14.6404 600.764,-21.6402"/>
</g>
<!-- 19 -->
<g id="node20" class="node"><title>19</title>
<path fill="none" stroke="#59d856" stroke-width="2" stroke-dasharray="5,2" d="M391,-180C391,-180 361,-180 361,-180 355,-180 349,-174 349,-168 349,-168 349,-156 349,-156 349,-150 355,-144 361,-144 361,-144 391,-144 391,-144 397,-144 403,-150 403,-156 403,-156 403,-168 403,-168 403,-174 397,-180 391,-180"/>
<text text-anchor="middle" x="376" y="-159.5" font-family="sans" font-size="10.00">trim</text>
</g>
<!-- 1&#45;&gt;19 -->
<g id="edge37" class="edge"><title>1&#45;&gt;19</title>
<path fill="none" stroke="grey" stroke-width="2" d="M126.203,-218.019C129.176,-217.333 132.12,-216.657 135,-216 207.184,-199.542 291.739,-181.151 339.066,-170.938"/>
<polygon fill="grey" stroke="grey" points="339.825,-174.354 348.863,-168.825 338.35,-167.512 339.825,-174.354"/>
</g>
<!-- 2 -->
<g id="node3" class="node"><title>2</title>
<path fill="none" stroke="#d85656" stroke-width="2" stroke-dasharray="5,2" d="M258,-252C258,-252 156,-252 156,-252 150,-252 144,-246 144,-240 144,-240 144,-228 144,-228 144,-222 150,-216 156,-216 156,-216 258,-216 258,-216 264,-216 270,-222 270,-228 270,-228 270,-240 270,-240 270,-246 264,-252 258,-252"/>
<text text-anchor="middle" x="207" y="-237" font-family="sans" font-size="10.00">fastqc</text>
<text text-anchor="middle" x="207" y="-226" font-family="sans" font-size="10.00">sample: SRR12365593</text>
</g>
<!-- 2&#45;&gt;0 -->
<g id="edge2" class="edge"><title>2&#45;&gt;0</title>
<path fill="none" stroke="grey" stroke-width="2" d="M212.544,-215.981C224.46,-182.337 255.91,-107.51 310,-72 357.378,-40.8963 525.285,-26.3147 600.767,-21.2172"/>
<polygon fill="grey" stroke="grey" points="601.033,-24.7074 610.782,-20.5602 600.575,-17.7224 601.033,-24.7074"/>
</g>
<!-- 21 -->
<g id="node22" class="node"><title>21</title>
<path fill="none" stroke="#59d856" stroke-width="2" stroke-dasharray="5,2" d="M463,-180C463,-180 433,-180 433,-180 427,-180 421,-174 421,-168 421,-168 421,-156 421,-156 421,-150 427,-144 433,-144 433,-144 463,-144 463,-144 469,-144 475,-150 475,-156 475,-156 475,-168 475,-168 475,-174 469,-180 463,-180"/>
<text text-anchor="middle" x="448" y="-159.5" font-family="sans" font-size="10.00">trim</text>
</g>
<!-- 2&#45;&gt;21 -->
<g id="edge39" class="edge"><title>2&#45;&gt;21</title>
<path fill="none" stroke="grey" stroke-width="2" d="M270.25,-218.028C316.061,-206.949 374.932,-192.174 411.13,-179.921"/>
<polygon fill="grey" stroke="grey" points="412.445,-183.169 420.709,-176.538 410.114,-176.568 412.445,-183.169"/>
</g>
<!-- 3 -->
<g id="node4" class="node"><title>3</title>
<path fill="none" stroke="#d85656" stroke-width="2" stroke-dasharray="5,2" d="M402,-252C402,-252 300,-252 300,-252 294,-252 288,-246 288,-240 288,-240 288,-228 288,-228 288,-222 294,-216 300,-216 300,-216 402,-216 402,-216 408,-216 414,-222 414,-228 414,-228 414,-240 414,-240 414,-246 408,-252 402,-252"/>
<text text-anchor="middle" x="351" y="-237" font-family="sans" font-size="10.00">fastqc</text>
<text text-anchor="middle" x="351" y="-226" font-family="sans" font-size="10.00">sample: SRR12365594</text>
</g>
<!-- 3&#45;&gt;0 -->
<g id="edge3" class="edge"><title>3&#45;&gt;0</title>
<path fill="none" stroke="grey" stroke-width="2" d="M336.673,-215.566C329.552,-205.762 321.694,-192.923 318,-180 312.655,-161.304 309.865,-82.6275 319,-72 355.044,-30.0674 524.494,-21.2861 600.705,-19.4659"/>
<polygon fill="grey" stroke="grey" points="600.892,-22.9628 610.816,-19.2525 600.744,-15.9643 600.892,-22.9628"/>
</g>
<!-- 22 -->
<g id="node23" class="node"><title>22</title>
<path fill="none" stroke="#59d856" stroke-width="2" stroke-dasharray="5,2" d="M535,-180C535,-180 505,-180 505,-180 499,-180 493,-174 493,-168 493,-168 493,-156 493,-156 493,-150 499,-144 505,-144 505,-144 535,-144 535,-144 541,-144 547,-150 547,-156 547,-156 547,-168 547,-168 547,-174 541,-180 535,-180"/>
<text text-anchor="middle" x="520" y="-159.5" font-family="sans" font-size="10.00">trim</text>
</g>
<!-- 3&#45;&gt;22 -->
<g id="edge41" class="edge"><title>3&#45;&gt;22</title>
<path fill="none" stroke="grey" stroke-width="2" d="M395.922,-215.898C419.708,-206.66 449.555,-194.782 483.7,-180.018"/>
<polygon fill="grey" stroke="grey" points="485.182,-183.19 492.955,-175.991 482.389,-176.772 485.182,-183.19"/>
</g>
<!-- 4 -->
<g id="node5" class="node"><title>4</title>
<path fill="none" stroke="#d85656" stroke-width="2" stroke-dasharray="5,2" d="M546,-252C546,-252 444,-252 444,-252 438,-252 432,-246 432,-240 432,-240 432,-228 432,-228 432,-222 438,-216 444,-216 444,-216 546,-216 546,-216 552,-216 558,-222 558,-228 558,-228 558,-240 558,-240 558,-246 552,-252 546,-252"/>
<text text-anchor="middle" x="495" y="-237" font-family="sans" font-size="10.00">fastqc</text>
<text text-anchor="middle" x="495" y="-226" font-family="sans" font-size="10.00">sample: SRR12365595</text>
</g>
<!-- 4&#45;&gt;0 -->
<g id="edge4" class="edge"><title>4&#45;&gt;0</title>
<path fill="none" stroke="grey" stroke-width="2" d="M431.629,-216.618C387.504,-204.574 335.446,-188.825 329,-180 317.913,-164.822 317.013,-89.9678 333,-72 367.902,-32.773 527.202,-22.5509 600.676,-19.9094"/>
<polygon fill="grey" stroke="grey" points="600.99,-23.401 610.868,-19.5721 600.758,-16.4048 600.99,-23.401"/>
</g>
<!-- 23 -->
<g id="node24" class="node"><title>23</title>
<path fill="none" stroke="#59d856" stroke-width="2" stroke-dasharray="5,2" d="M607,-180C607,-180 577,-180 577,-180 571,-180 565,-174 565,-168 565,-168 565,-156 565,-156 565,-150 571,-144 577,-144 577,-144 607,-144 607,-144 613,-144 619,-150 619,-156 619,-156 619,-168 619,-168 619,-174 613,-180 607,-180"/>
<text text-anchor="middle" x="592" y="-159.5" font-family="sans" font-size="10.00">trim</text>
</g>
<!-- 4&#45;&gt;23 -->
<g id="edge43" class="edge"><title>4&#45;&gt;23</title>
<path fill="none" stroke="grey" stroke-width="2" d="M518.978,-215.697C531.311,-206.796 546.516,-195.823 559.853,-186.199"/>
<polygon fill="grey" stroke="grey" points="562.237,-188.794 568.298,-180.104 558.141,-183.118 562.237,-188.794"/>
</g>
<!-- 5 -->
<g id="node6" class="node"><title>5</title>
<path fill="none" stroke="#d85656" stroke-width="2" stroke-dasharray="5,2" d="M690,-252C690,-252 588,-252 588,-252 582,-252 576,-246 576,-240 576,-240 576,-228 576,-228 576,-222 582,-216 588,-216 588,-216 690,-216 690,-216 696,-216 702,-222 702,-228 702,-228 702,-240 702,-240 702,-246 696,-252 690,-252"/>
<text text-anchor="middle" x="639" y="-237" font-family="sans" font-size="10.00">fastqc</text>
<text text-anchor="middle" x="639" y="-226" font-family="sans" font-size="10.00">sample: SRR12365596</text>
</g>
<!-- 5&#45;&gt;0 -->
<g id="edge5" class="edge"><title>5&#45;&gt;0</title>
<path fill="none" stroke="grey" stroke-width="2" d="M575.842,-217.806C572.857,-217.177 569.898,-216.571 567,-216 516.889,-206.125 373.167,-218.841 340,-180 325.129,-162.585 335.508,-87.1442 350,-72 383.935,-36.5385 530.52,-24.4194 600.517,-20.6044"/>
<polygon fill="grey" stroke="grey" points="600.86,-24.0915 610.666,-20.0805 600.499,-17.1008 600.86,-24.0915"/>
</g>
<!-- 24 -->
<g id="node25" class="node"><title>24</title>
<path fill="none" stroke="#59d856" stroke-width="2" stroke-dasharray="5,2" d="M679,-180C679,-180 649,-180 649,-180 643,-180 637,-174 637,-168 637,-168 637,-156 637,-156 637,-150 643,-144 649,-144 649,-144 679,-144 679,-144 685,-144 691,-150 691,-156 691,-156 691,-168 691,-168 691,-174 685,-180 679,-180"/>
<text text-anchor="middle" x="664" y="-159.5" font-family="sans" font-size="10.00">trim</text>
</g>
<!-- 5&#45;&gt;24 -->
<g id="edge45" class="edge"><title>5&#45;&gt;24</title>
<path fill="none" stroke="grey" stroke-width="2" d="M645.18,-215.697C647.995,-207.813 651.391,-198.304 654.519,-189.546"/>
<polygon fill="grey" stroke="grey" points="657.824,-190.699 657.891,-180.104 651.232,-188.345 657.824,-190.699"/>
</g>
<!-- 6 -->
<g id="node7" class="node"><title>6</title>
<path fill="none" stroke="#d85656" stroke-width="2" stroke-dasharray="5,2" d="M932,-252C932,-252 830,-252 830,-252 824,-252 818,-246 818,-240 818,-240 818,-228 818,-228 818,-222 824,-216 830,-216 830,-216 932,-216 932,-216 938,-216 944,-222 944,-228 944,-228 944,-240 944,-240 944,-246 938,-252 932,-252"/>
<text text-anchor="middle" x="881" y="-237" font-family="sans" font-size="10.00">fastqc</text>
<text text-anchor="middle" x="881" y="-226" font-family="sans" font-size="10.00">sample: SRR12365597</text>
</g>
<!-- 6&#45;&gt;0 -->
<g id="edge6" class="edge"><title>6&#45;&gt;0</title>
<path fill="none" stroke="grey" stroke-width="2" d="M944.268,-218.107C1000.9,-204.475 1075.7,-185.599 1080,-180 1089.75,-167.314 1086.6,-158.576 1080,-144 1060,-99.8175 1042.02,-92.3662 998,-72 941.004,-45.6278 755.392,-28.2506 675.323,-21.8039"/>
<polygon fill="grey" stroke="grey" points="675.443,-18.3025 665.198,-21.0018 674.89,-25.2807 675.443,-18.3025"/>
</g>
<!-- 25 -->
<g id="node26" class="node"><title>25</title>
<path fill="none" stroke="#59d856" stroke-width="2" stroke-dasharray="5,2" d="M843,-180C843,-180 813,-180 813,-180 807,-180 801,-174 801,-168 801,-168 801,-156 801,-156 801,-150 807,-144 813,-144 813,-144 843,-144 843,-144 849,-144 855,-150 855,-156 855,-156 855,-168 855,-168 855,-174 849,-180 843,-180"/>
<text text-anchor="middle" x="828" y="-159.5" font-family="sans" font-size="10.00">trim</text>
</g>
<!-- 6&#45;&gt;25 -->
<g id="edge47" class="edge"><title>6&#45;&gt;25</title>
<path fill="none" stroke="grey" stroke-width="2" d="M867.899,-215.697C861.609,-207.389 853.953,-197.277 847.035,-188.141"/>
<polygon fill="grey" stroke="grey" points="849.777,-185.964 840.95,-180.104 844.196,-190.19 849.777,-185.964"/>
</g>
<!-- 7 -->
<g id="node8" class="node"><title>7</title>
<path fill="none" stroke="#d85656" stroke-width="2" stroke-dasharray="5,2" d="M1076,-252C1076,-252 974,-252 974,-252 968,-252 962,-246 962,-240 962,-240 962,-228 962,-228 962,-222 968,-216 974,-216 974,-216 1076,-216 1076,-216 1082,-216 1088,-222 1088,-228 1088,-228 1088,-240 1088,-240 1088,-246 1082,-252 1076,-252"/>
<text text-anchor="middle" x="1025" y="-237" font-family="sans" font-size="10.00">fastqc</text>
<text text-anchor="middle" x="1025" y="-226" font-family="sans" font-size="10.00">sample: SRR12365598</text>
</g>
<!-- 7&#45;&gt;0 -->
<g id="edge7" class="edge"><title>7&#45;&gt;0</title>
<path fill="none" stroke="grey" stroke-width="2" d="M1061.03,-215.815C1074.92,-207.165 1089.3,-195.237 1097,-180 1121.4,-131.748 1087.92,-98.8779 1041,-72 978.998,-36.4789 762.891,-23.99 675.3,-20.3221"/>
<polygon fill="grey" stroke="grey" points="675.407,-16.8237 665.274,-19.9176 675.125,-23.818 675.407,-16.8237"/>
</g>
<!-- 26 -->
<g id="node27" class="node"><title>26</title>
<path fill="none" stroke="#59d856" stroke-width="2" stroke-dasharray="5,2" d="M915,-180C915,-180 885,-180 885,-180 879,-180 873,-174 873,-168 873,-168 873,-156 873,-156 873,-150 879,-144 885,-144 885,-144 915,-144 915,-144 921,-144 927,-150 927,-156 927,-156 927,-168 927,-168 927,-174 921,-180 915,-180"/>
<text text-anchor="middle" x="900" y="-159.5" font-family="sans" font-size="10.00">trim</text>
</g>
<!-- 7&#45;&gt;26 -->
<g id="edge49" class="edge"><title>7&#45;&gt;26</title>
<path fill="none" stroke="grey" stroke-width="2" d="M994.422,-215.876C976.781,-205.998 954.504,-193.522 936.018,-183.17"/>
<polygon fill="grey" stroke="grey" points="937.72,-180.112 927.285,-178.279 934.299,-186.219 937.72,-180.112"/>
</g>
<!-- 8 -->
<g id="node9" class="node"><title>8</title>
<path fill="none" stroke="#d85656" stroke-width="2" stroke-dasharray="5,2" d="M1220,-252C1220,-252 1118,-252 1118,-252 1112,-252 1106,-246 1106,-240 1106,-240 1106,-228 1106,-228 1106,-222 1112,-216 1118,-216 1118,-216 1220,-216 1220,-216 1226,-216 1232,-222 1232,-228 1232,-228 1232,-240 1232,-240 1232,-246 1226,-252 1220,-252"/>
<text text-anchor="middle" x="1169" y="-237" font-family="sans" font-size="10.00">fastqc</text>
<text text-anchor="middle" x="1169" y="-226" font-family="sans" font-size="10.00">sample: SRR12365599</text>
</g>
<!-- 8&#45;&gt;0 -->
<g id="edge8" class="edge"><title>8&#45;&gt;0</title>
<path fill="none" stroke="grey" stroke-width="2" d="M1164.83,-215.849C1155.62,-181.968 1130.09,-106.735 1078,-72 1012.28,-28.1749 768.909,-20.5557 675.156,-19.2564"/>
<polygon fill="grey" stroke="grey" points="675.044,-15.7549 665.002,-19.1326 674.958,-22.7544 675.044,-15.7549"/>
</g>
<!-- 27 -->
<g id="node28" class="node"><title>27</title>
<path fill="none" stroke="#59d856" stroke-width="2" stroke-dasharray="5,2" d="M987,-180C987,-180 957,-180 957,-180 951,-180 945,-174 945,-168 945,-168 945,-156 945,-156 945,-150 951,-144 957,-144 957,-144 987,-144 987,-144 993,-144 999,-150 999,-156 999,-156 999,-168 999,-168 999,-174 993,-180 987,-180"/>
<text text-anchor="middle" x="972" y="-159.5" font-family="sans" font-size="10.00">trim</text>
</g>
<!-- 8&#45;&gt;27 -->
<g id="edge51" class="edge"><title>8&#45;&gt;27</title>
<path fill="none" stroke="grey" stroke-width="2" d="M1111.38,-215.926C1082.71,-206.991 1047.45,-195.35 1008.74,-180.088"/>
<polygon fill="grey" stroke="grey" points="1009.95,-176.803 999.364,-176.348 1007.35,-183.304 1009.95,-176.803"/>
</g>
<!-- 9 -->
<g id="node10" class="node"><title>9</title>
<path fill="none" stroke="#d85656" stroke-width="2" stroke-dasharray="5,2" d="M1364,-252C1364,-252 1262,-252 1262,-252 1256,-252 1250,-246 1250,-240 1250,-240 1250,-228 1250,-228 1250,-222 1256,-216 1262,-216 1262,-216 1364,-216 1364,-216 1370,-216 1376,-222 1376,-228 1376,-228 1376,-240 1376,-240 1376,-246 1370,-252 1364,-252"/>
<text text-anchor="middle" x="1313" y="-237" font-family="sans" font-size="10.00">fastqc</text>
<text text-anchor="middle" x="1313" y="-226" font-family="sans" font-size="10.00">sample: SRR12365600</text>
</g>
<!-- 9&#45;&gt;0 -->
<g id="edge9" class="edge"><title>9&#45;&gt;0</title>
<path fill="none" stroke="grey" stroke-width="2" d="M1297.87,-215.894C1266.53,-181.748 1190.58,-105.542 1109,-72 1030.51,-39.7278 772.728,-25.0533 675.533,-20.5696"/>
<polygon fill="grey" stroke="grey" points="675.445,-17.0622 665.298,-20.108 675.13,-24.0551 675.445,-17.0622"/>
</g>
<!-- 28 -->
<g id="node29" class="node"><title>28</title>
<path fill="none" stroke="#59d856" stroke-width="2" stroke-dasharray="5,2" d="M1059,-180C1059,-180 1029,-180 1029,-180 1023,-180 1017,-174 1017,-168 1017,-168 1017,-156 1017,-156 1017,-150 1023,-144 1029,-144 1029,-144 1059,-144 1059,-144 1065,-144 1071,-150 1071,-156 1071,-156 1071,-168 1071,-168 1071,-174 1065,-180 1059,-180"/>
<text text-anchor="middle" x="1044" y="-159.5" font-family="sans" font-size="10.00">trim</text>
</g>
<!-- 9&#45;&gt;28 -->
<g id="edge53" class="edge"><title>9&#45;&gt;28</title>
<path fill="none" stroke="grey" stroke-width="2" d="M1249.93,-216.588C1197.46,-202.933 1124.55,-183.961 1081.03,-172.637"/>
<polygon fill="grey" stroke="grey" points="1081.72,-169.199 1071.16,-170.068 1079.96,-175.974 1081.72,-169.199"/>
</g>
<!-- 10 -->
<g id="node11" class="node"><title>10</title>
<path fill="none" stroke="#56d8a9" stroke-width="2" stroke-dasharray="5,2" d="M401,-108C401,-108 371,-108 371,-108 365,-108 359,-102 359,-96 359,-96 359,-84 359,-84 359,-78 365,-72 371,-72 371,-72 401,-72 401,-72 407,-72 413,-78 413,-84 413,-84 413,-96 413,-96 413,-102 407,-108 401,-108"/>
<text text-anchor="middle" x="386" y="-87.5" font-family="sans" font-size="10.00">map</text>
</g>
<!-- 10&#45;&gt;0 -->
<g id="edge10" class="edge"><title>10&#45;&gt;0</title>
<path fill="none" stroke="grey" stroke-width="2" d="M413.278,-75.4258C416.189,-74.1862 419.134,-73.0168 422,-72 483.315,-50.2486 557.488,-34.1704 601.032,-25.7201"/>
<polygon fill="grey" stroke="grey" points="601.726,-29.1508 610.891,-23.8358 600.412,-22.2752 601.726,-29.1508"/>
</g>
<!-- 11 -->
<g id="node12" class="node"><title>11</title>
<path fill="none" stroke="#56d8a9" stroke-width="2" stroke-dasharray="5,2" d="M473,-108C473,-108 443,-108 443,-108 437,-108 431,-102 431,-96 431,-96 431,-84 431,-84 431,-78 437,-72 443,-72 443,-72 473,-72 473,-72 479,-72 485,-78 485,-84 485,-84 485,-96 485,-96 485,-102 479,-108 473,-108"/>
<text text-anchor="middle" x="458" y="-87.5" font-family="sans" font-size="10.00">map</text>
</g>
<!-- 11&#45;&gt;0 -->
<g id="edge11" class="edge"><title>11&#45;&gt;0</title>
<path fill="none" stroke="grey" stroke-width="2" d="M485.011,-75.9307C488.027,-74.5654 491.068,-73.2291 494,-72 529.933,-56.938 571.809,-41.7871 601.109,-31.5651"/>
<polygon fill="grey" stroke="grey" points="602.617,-34.7468 610.918,-28.1633 600.324,-28.1332 602.617,-34.7468"/>
</g>
<!-- 12 -->
<g id="node13" class="node"><title>12</title>
<path fill="none" stroke="#56d8a9" stroke-width="2" stroke-dasharray="5,2" d="M545,-108C545,-108 515,-108 515,-108 509,-108 503,-102 503,-96 503,-96 503,-84 503,-84 503,-78 509,-72 515,-72 515,-72 545,-72 545,-72 551,-72 557,-78 557,-84 557,-84 557,-96 557,-96 557,-102 551,-108 545,-108"/>
<text text-anchor="middle" x="530" y="-87.5" font-family="sans" font-size="10.00">map</text>
</g>
<!-- 12&#45;&gt;0 -->
<g id="edge12" class="edge"><title>12&#45;&gt;0</title>
<path fill="none" stroke="grey" stroke-width="2" d="M556.42,-71.8761C570.41,-62.8083 587.776,-51.5523 602.886,-41.7592"/>
<polygon fill="grey" stroke="grey" points="604.991,-44.5658 611.479,-36.1898 601.183,-38.6917 604.991,-44.5658"/>
</g>
<!-- 13 -->
<g id="node14" class="node"><title>13</title>
<path fill="none" stroke="#56d8a9" stroke-width="2" stroke-dasharray="5,2" d="M617,-108C617,-108 587,-108 587,-108 581,-108 575,-102 575,-96 575,-96 575,-84 575,-84 575,-78 581,-72 587,-72 587,-72 617,-72 617,-72 623,-72 629,-78 629,-84 629,-84 629,-96 629,-96 629,-102 623,-108 617,-108"/>
<text text-anchor="middle" x="602" y="-87.5" font-family="sans" font-size="10.00">map</text>
</g>
<!-- 13&#45;&gt;0 -->
<g id="edge13" class="edge"><title>13&#45;&gt;0</title>
<path fill="none" stroke="grey" stroke-width="2" d="M610.899,-71.6966C614.997,-63.7284 619.949,-54.0995 624.493,-45.2641"/>
<polygon fill="grey" stroke="grey" points="627.742,-46.598 629.203,-36.1043 621.517,-43.3965 627.742,-46.598"/>
</g>
<!-- 14 -->
<g id="node15" class="node"><title>14</title>
<path fill="none" stroke="#56d8a9" stroke-width="2" stroke-dasharray="5,2" d="M689,-108C689,-108 659,-108 659,-108 653,-108 647,-102 647,-96 647,-96 647,-84 647,-84 647,-78 653,-72 659,-72 659,-72 689,-72 689,-72 695,-72 701,-78 701,-84 701,-84 701,-96 701,-96 701,-102 695,-108 689,-108"/>
<text text-anchor="middle" x="674" y="-87.5" font-family="sans" font-size="10.00">map</text>
</g>
<!-- 14&#45;&gt;0 -->
<g id="edge14" class="edge"><title>14&#45;&gt;0</title>
<path fill="none" stroke="grey" stroke-width="2" d="M665.101,-71.6966C661.003,-63.7284 656.051,-54.0995 651.507,-45.2641"/>
<polygon fill="grey" stroke="grey" points="654.483,-43.3965 646.797,-36.1043 648.258,-46.598 654.483,-43.3965"/>
</g>
<!-- 15 -->
<g id="node16" class="node"><title>15</title>
<path fill="none" stroke="#56d8a9" stroke-width="2" stroke-dasharray="5,2" d="M761,-108C761,-108 731,-108 731,-108 725,-108 719,-102 719,-96 719,-96 719,-84 719,-84 719,-78 725,-72 731,-72 731,-72 761,-72 761,-72 767,-72 773,-78 773,-84 773,-84 773,-96 773,-96 773,-102 767,-108 761,-108"/>
<text text-anchor="middle" x="746" y="-87.5" font-family="sans" font-size="10.00">map</text>
</g>
<!-- 15&#45;&gt;0 -->
<g id="edge15" class="edge"><title>15&#45;&gt;0</title>
<path fill="none" stroke="grey" stroke-width="2" d="M719.58,-71.8761C705.59,-62.8083 688.224,-51.5523 673.114,-41.7592"/>
<polygon fill="grey" stroke="grey" points="674.817,-38.6917 664.521,-36.1898 671.009,-44.5658 674.817,-38.6917"/>
</g>
<!-- 16 -->
<g id="node17" class="node"><title>16</title>
<path fill="none" stroke="#56d8a9" stroke-width="2" stroke-dasharray="5,2" d="M833,-108C833,-108 803,-108 803,-108 797,-108 791,-102 791,-96 791,-96 791,-84 791,-84 791,-78 797,-72 803,-72 803,-72 833,-72 833,-72 839,-72 845,-78 845,-84 845,-84 845,-96 845,-96 845,-102 839,-108 833,-108"/>
<text text-anchor="middle" x="818" y="-87.5" font-family="sans" font-size="10.00">map</text>
</g>
<!-- 16&#45;&gt;0 -->
<g id="edge16" class="edge"><title>16&#45;&gt;0</title>
<path fill="none" stroke="grey" stroke-width="2" d="M790.989,-75.9307C787.973,-74.5654 784.932,-73.2291 782,-72 746.067,-56.938 704.191,-41.7871 674.891,-31.5651"/>
<polygon fill="grey" stroke="grey" points="675.676,-28.1332 665.082,-28.1633 673.383,-34.7468 675.676,-28.1332"/>
</g>
<!-- 17 -->
<g id="node18" class="node"><title>17</title>
<path fill="none" stroke="#56d8a9" stroke-width="2" stroke-dasharray="5,2" d="M905,-108C905,-108 875,-108 875,-108 869,-108 863,-102 863,-96 863,-96 863,-84 863,-84 863,-78 869,-72 875,-72 875,-72 905,-72 905,-72 911,-72 917,-78 917,-84 917,-84 917,-96 917,-96 917,-102 911,-108 905,-108"/>
<text text-anchor="middle" x="890" y="-87.5" font-family="sans" font-size="10.00">map</text>
</g>
<!-- 17&#45;&gt;0 -->
<g id="edge17" class="edge"><title>17&#45;&gt;0</title>
<path fill="none" stroke="grey" stroke-width="2" d="M862.722,-75.4258C859.811,-74.1862 856.866,-73.0168 854,-72 792.685,-50.2486 718.512,-34.1704 674.968,-25.7201"/>
<polygon fill="grey" stroke="grey" points="675.588,-22.2752 665.109,-23.8358 674.274,-29.1508 675.588,-22.2752"/>
</g>
<!-- 18 -->
<g id="node19" class="node"><title>18</title>
<path fill="none" stroke="#56d8a9" stroke-width="2" stroke-dasharray="5,2" d="M977,-108C977,-108 947,-108 947,-108 941,-108 935,-102 935,-96 935,-96 935,-84 935,-84 935,-78 941,-72 947,-72 947,-72 977,-72 977,-72 983,-72 989,-78 989,-84 989,-84 989,-96 989,-96 989,-102 983,-108 977,-108"/>
<text text-anchor="middle" x="962" y="-87.5" font-family="sans" font-size="10.00">map</text>
</g>
<!-- 18&#45;&gt;0 -->
<g id="edge18" class="edge"><title>18&#45;&gt;0</title>
<path fill="none" stroke="grey" stroke-width="2" d="M934.78,-75.2521C931.858,-74.0464 928.895,-72.9323 926,-72 838.486,-43.8139 730.894,-29.0016 675.264,-22.7338"/>
<polygon fill="grey" stroke="grey" points="675.496,-19.2385 665.174,-21.6272 674.733,-26.1967 675.496,-19.2385"/>
</g>
<!-- 19&#45;&gt;10 -->
<g id="edge19" class="edge"><title>19&#45;&gt;10</title>
<path fill="none" stroke="grey" stroke-width="2" d="M378.472,-143.697C379.574,-135.983 380.898,-126.712 382.127,-118.112"/>
<polygon fill="grey" stroke="grey" points="385.607,-118.499 383.557,-108.104 378.677,-117.509 385.607,-118.499"/>
</g>
<!-- 20 -->
<g id="node21" class="node"><title>20</title>
<path fill="none" stroke="#afd856" stroke-width="2" stroke-dasharray="5,2" d="M771,-180C771,-180 721,-180 721,-180 715,-180 709,-174 709,-168 709,-168 709,-156 709,-156 709,-150 715,-144 721,-144 721,-144 771,-144 771,-144 777,-144 783,-150 783,-156 783,-156 783,-168 783,-168 783,-174 777,-180 771,-180"/>
<text text-anchor="middle" x="746" y="-159.5" font-family="sans" font-size="10.00">STAR_index</text>
</g>
<!-- 20&#45;&gt;10 -->
<g id="edge20" class="edge"><title>20&#45;&gt;10</title>
<path fill="none" stroke="grey" stroke-width="2" d="M708.814,-146.459C705.856,-145.548 702.894,-144.712 700,-144 582.215,-115.003 543.596,-141.548 423.14,-107.785"/>
<polygon fill="grey" stroke="grey" points="423.749,-104.318 413.171,-104.907 421.808,-111.043 423.749,-104.318"/>
</g>
<!-- 20&#45;&gt;11 -->
<g id="edge22" class="edge"><title>20&#45;&gt;11</title>
<path fill="none" stroke="grey" stroke-width="2" d="M708.777,-146.602C705.827,-145.658 702.877,-144.776 700,-144 613.332,-120.619 584.559,-135.029 494.958,-107.823"/>
<polygon fill="grey" stroke="grey" points="495.8,-104.419 485.211,-104.775 493.71,-111.1 495.8,-104.419"/>
</g>
<!-- 20&#45;&gt;12 -->
<g id="edge24" class="edge"><title>20&#45;&gt;12</title>
<path fill="none" stroke="grey" stroke-width="2" d="M708.944,-146.974C705.929,-145.934 702.921,-144.93 700,-144 644.108,-126.205 625.683,-128.918 566.714,-107.935"/>
<polygon fill="grey" stroke="grey" points="567.896,-104.64 557.302,-104.51 565.502,-111.218 567.896,-104.64"/>
</g>
<!-- 20&#45;&gt;13 -->
<g id="edge26" class="edge"><title>20&#45;&gt;13</title>
<path fill="none" stroke="grey" stroke-width="2" d="M710.774,-143.876C688.771,-133.18 660.506,-119.44 638.303,-108.647"/>
<polygon fill="grey" stroke="grey" points="639.719,-105.444 629.195,-104.22 636.659,-111.74 639.719,-105.444"/>
</g>
<!-- 20&#45;&gt;14 -->
<g id="edge28" class="edge"><title>20&#45;&gt;14</title>
<path fill="none" stroke="grey" stroke-width="2" d="M728.202,-143.697C719.396,-135.135 708.618,-124.656 698.999,-115.304"/>
<polygon fill="grey" stroke="grey" points="701.203,-112.566 691.593,-108.104 696.323,-117.585 701.203,-112.566"/>
</g>
<!-- 20&#45;&gt;15 -->
<g id="edge30" class="edge"><title>20&#45;&gt;15</title>
<path fill="none" stroke="grey" stroke-width="2" d="M746,-143.697C746,-135.983 746,-126.712 746,-118.112"/>
<polygon fill="grey" stroke="grey" points="749.5,-118.104 746,-108.104 742.5,-118.104 749.5,-118.104"/>
</g>
<!-- 20&#45;&gt;16 -->
<g id="edge32" class="edge"><title>20&#45;&gt;16</title>
<path fill="none" stroke="grey" stroke-width="2" d="M763.798,-143.697C772.604,-135.135 783.382,-124.656 793.001,-115.304"/>
<polygon fill="grey" stroke="grey" points="795.677,-117.585 800.407,-108.104 790.797,-112.566 795.677,-117.585"/>
</g>
<!-- 20&#45;&gt;17 -->
<g id="edge34" class="edge"><title>20&#45;&gt;17</title>
<path fill="none" stroke="grey" stroke-width="2" d="M781.226,-143.876C803.229,-133.18 831.494,-119.44 853.697,-108.647"/>
<polygon fill="grey" stroke="grey" points="855.341,-111.74 862.805,-104.22 852.281,-105.444 855.341,-111.74"/>
</g>
<!-- 20&#45;&gt;18 -->
<g id="edge36" class="edge"><title>20&#45;&gt;18</title>
<path fill="none" stroke="grey" stroke-width="2" d="M783.056,-146.974C786.071,-145.934 789.079,-144.93 792,-144 847.892,-126.205 866.317,-128.918 925.286,-107.935"/>
<polygon fill="grey" stroke="grey" points="926.498,-111.218 934.698,-104.51 924.104,-104.64 926.498,-111.218"/>
</g>
<!-- 21&#45;&gt;11 -->
<g id="edge21" class="edge"><title>21&#45;&gt;11</title>
<path fill="none" stroke="grey" stroke-width="2" d="M450.472,-143.697C451.574,-135.983 452.898,-126.712 454.127,-118.112"/>
<polygon fill="grey" stroke="grey" points="457.607,-118.499 455.557,-108.104 450.677,-117.509 457.607,-118.499"/>
</g>
<!-- 22&#45;&gt;12 -->
<g id="edge23" class="edge"><title>22&#45;&gt;12</title>
<path fill="none" stroke="grey" stroke-width="2" d="M522.472,-143.697C523.574,-135.983 524.898,-126.712 526.127,-118.112"/>
<polygon fill="grey" stroke="grey" points="529.607,-118.499 527.557,-108.104 522.677,-117.509 529.607,-118.499"/>
</g>
<!-- 23&#45;&gt;13 -->
<g id="edge25" class="edge"><title>23&#45;&gt;13</title>
<path fill="none" stroke="grey" stroke-width="2" d="M594.472,-143.697C595.574,-135.983 596.898,-126.712 598.127,-118.112"/>
<polygon fill="grey" stroke="grey" points="601.607,-118.499 599.557,-108.104 594.677,-117.509 601.607,-118.499"/>
</g>
<!-- 24&#45;&gt;14 -->
<g id="edge27" class="edge"><title>24&#45;&gt;14</title>
<path fill="none" stroke="grey" stroke-width="2" d="M666.472,-143.697C667.574,-135.983 668.898,-126.712 670.127,-118.112"/>
<polygon fill="grey" stroke="grey" points="673.607,-118.499 671.557,-108.104 666.677,-117.509 673.607,-118.499"/>
</g>
<!-- 25&#45;&gt;15 -->
<g id="edge29" class="edge"><title>25&#45;&gt;15</title>
<path fill="none" stroke="grey" stroke-width="2" d="M807.73,-143.697C797.502,-134.965 784.939,-124.24 773.822,-114.75"/>
<polygon fill="grey" stroke="grey" points="775.915,-111.935 766.037,-108.104 771.37,-117.259 775.915,-111.935"/>
</g>
<!-- 26&#45;&gt;16 -->
<g id="edge31" class="edge"><title>26&#45;&gt;16</title>
<path fill="none" stroke="grey" stroke-width="2" d="M879.73,-143.697C869.502,-134.965 856.939,-124.24 845.822,-114.75"/>
<polygon fill="grey" stroke="grey" points="847.915,-111.935 838.037,-108.104 843.37,-117.259 847.915,-111.935"/>
</g>
<!-- 27&#45;&gt;17 -->
<g id="edge33" class="edge"><title>27&#45;&gt;17</title>
<path fill="none" stroke="grey" stroke-width="2" d="M951.73,-143.697C941.502,-134.965 928.939,-124.24 917.822,-114.75"/>
<polygon fill="grey" stroke="grey" points="919.915,-111.935 910.037,-108.104 915.37,-117.259 919.915,-111.935"/>
</g>
<!-- 28&#45;&gt;18 -->
<g id="edge35" class="edge"><title>28&#45;&gt;18</title>
<path fill="none" stroke="grey" stroke-width="2" d="M1023.73,-143.697C1013.5,-134.965 1000.94,-124.24 989.822,-114.75"/>
<polygon fill="grey" stroke="grey" points="991.915,-111.935 982.037,-108.104 987.37,-117.259 991.915,-111.935"/>
</g>
<!-- 29 -->
<g id="node30" class="node"><title>29</title>
<path fill="none" stroke="#56a9d8" stroke-width="2" stroke-dasharray="5,2" d="M788,-252C788,-252 732,-252 732,-252 726,-252 720,-246 720,-240 720,-240 720,-228 720,-228 720,-222 726,-216 732,-216 732,-216 788,-216 788,-216 794,-216 800,-222 800,-228 800,-228 800,-240 800,-240 800,-246 794,-252 788,-252"/>
<text text-anchor="middle" x="760" y="-231.5" font-family="sans" font-size="10.00">create_polyA</text>
</g>
<!-- 29&#45;&gt;19 -->
<g id="edge38" class="edge"><title>29&#45;&gt;19</title>
<path fill="none" stroke="grey" stroke-width="2" d="M719.824,-218.296C716.858,-217.447 713.895,-216.668 711,-216 583.766,-186.627 542.623,-215.569 413.059,-179.747"/>
<polygon fill="grey" stroke="grey" points="413.739,-176.302 403.163,-176.934 411.825,-183.035 413.739,-176.302"/>
</g>
<!-- 29&#45;&gt;21 -->
<g id="edge40" class="edge"><title>29&#45;&gt;21</title>
<path fill="none" stroke="grey" stroke-width="2" d="M719.794,-218.419C716.836,-217.541 713.882,-216.723 711,-216 615.012,-191.938 583.572,-208.971 484.954,-179.792"/>
<polygon fill="grey" stroke="grey" points="485.782,-176.386 475.196,-176.822 483.743,-183.083 485.782,-176.386"/>
</g>
<!-- 29&#45;&gt;22 -->
<g id="edge42" class="edge"><title>29&#45;&gt;22</title>
<path fill="none" stroke="grey" stroke-width="2" d="M719.999,-218.736C716.966,-217.773 713.941,-216.849 711,-216 646.105,-197.263 624.714,-202.669 557.119,-180.001"/>
<polygon fill="grey" stroke="grey" points="557.86,-176.555 547.265,-176.611 555.583,-183.174 557.86,-176.555"/>
</g>
<!-- 29&#45;&gt;23 -->
<g id="edge44" class="edge"><title>29&#45;&gt;23</title>
<path fill="none" stroke="grey" stroke-width="2" d="M719.887,-217.609C695.647,-208.146 663.976,-195.501 628.224,-179.989"/>
<polygon fill="grey" stroke="grey" points="629.613,-176.776 619.048,-175.983 626.813,-183.192 629.613,-176.776"/>
</g>
<!-- 29&#45;&gt;24 -->
<g id="edge46" class="edge"><title>29&#45;&gt;24</title>
<path fill="none" stroke="grey" stroke-width="2" d="M736.27,-215.697C724.063,-206.796 709.015,-195.823 695.816,-186.199"/>
<polygon fill="grey" stroke="grey" points="697.6,-183.168 687.457,-180.104 693.475,-188.824 697.6,-183.168"/>
</g>
<!-- 29&#45;&gt;25 -->
<g id="edge48" class="edge"><title>29&#45;&gt;25</title>
<path fill="none" stroke="grey" stroke-width="2" d="M776.809,-215.697C785.126,-207.135 795.305,-196.656 804.39,-187.304"/>
<polygon fill="grey" stroke="grey" points="806.927,-189.716 811.384,-180.104 801.906,-184.838 806.927,-189.716"/>
</g>
<!-- 29&#45;&gt;26 -->
<g id="edge50" class="edge"><title>29&#45;&gt;26</title>
<path fill="none" stroke="grey" stroke-width="2" d="M794.248,-215.876C815.262,-205.369 842.151,-191.924 863.557,-181.222"/>
<polygon fill="grey" stroke="grey" points="865.284,-184.271 872.663,-176.669 862.153,-178.01 865.284,-184.271"/>
</g>
<!-- 29&#45;&gt;27 -->
<g id="edge52" class="edge"><title>29&#45;&gt;27</title>
<path fill="none" stroke="grey" stroke-width="2" d="M800.049,-218.895C803.071,-217.895 806.08,-216.92 809,-216 862.008,-199.307 879.256,-200.417 935.003,-180.073"/>
<polygon fill="grey" stroke="grey" points="936.533,-183.238 944.684,-176.47 934.091,-176.678 936.533,-183.238"/>
</g>
<!-- 29&#45;&gt;28 -->
<g id="edge54" class="edge"><title>29&#45;&gt;28</title>
<path fill="none" stroke="grey" stroke-width="2" d="M800.224,-218.49C803.178,-217.596 806.126,-216.754 809,-216 892.884,-194.003 920.471,-206.471 1007.08,-179.829"/>
<polygon fill="grey" stroke="grey" points="1008.31,-183.111 1016.78,-176.757 1006.19,-176.437 1008.31,-183.111"/>
</g>
</g>
</svg>
