<?xml version="1.0" encoding="UTF-8" standalone="no"?>
<!DOCTYPE svg PUBLIC "-//W3C//DTD SVG 1.1//EN"
 "http://www.w3.org/Graphics/SVG/1.1/DTD/svg11.dtd">
<!-- Generated by graphviz version 2.30.1 (20180420.1509)
 -->
<!-- Title: snakemake_dag Pages: 1 -->
<svg width="2075pt" height="188pt"
 viewBox="0.00 0.00 2075.14 188.00" xmlns="http://www.w3.org/2000/svg" xmlns:xlink="http://www.w3.org/1999/xlink">
<g id="graph0" class="graph" transform="scale(1 1) rotate(0) translate(4 184)">
<title>snakemake_dag</title>
<polygon fill="white" stroke="white" points="-4,5 -4,-184 2072.14,-184 2072.14,5 -4,5"/>
<!-- 0 -->
<g id="node1" class="node"><title>0</title>
<path fill="none" stroke="#5692d8" stroke-width="2" d="M850,-36C850,-36 820,-36 820,-36 814,-36 808,-30 808,-24 808,-24 808,-12 808,-12 808,-6 814,-0 820,-0 820,-0 850,-0 850,-0 856,-0 862,-6 862,-12 862,-12 862,-24 862,-24 862,-30 856,-36 850,-36"/>
<text text-anchor="middle" x="835" y="-15.5" font-family="sans" font-size="10.00">target</text>
</g>
<!-- 1 -->
<g id="node2" class="node"><title>1</title>
<path fill="none" stroke="#56d873" stroke-width="2" d="M114,-180C114,-180 12,-180 12,-180 6,-180 0,-174 0,-168 0,-168 0,-156 0,-156 0,-150 6,-144 12,-144 12,-144 114,-144 114,-144 120,-144 126,-150 126,-156 126,-156 126,-168 126,-168 126,-174 120,-180 114,-180"/>
<text text-anchor="middle" x="63" y="-165" font-family="sans" font-size="10.00">qualimap</text>
<text text-anchor="middle" x="63" y="-154" font-family="sans" font-size="10.00">sample: SRR12365592</text>
</g>
<!-- 1&#45;&gt;0 -->
<g id="edge1" class="edge"><title>1&#45;&gt;0</title>
<path fill="none" stroke="grey" stroke-width="2" d="M103.111,-143.855C152.982,-123.305 241.168,-89.46 320,-72 495.886,-33.0442 712.039,-22.5999 797.596,-19.9011"/>
<polygon fill="grey" stroke="grey" points="797.952,-23.3921 807.843,-19.5957 797.744,-16.3952 797.952,-23.3921"/>
</g>
<!-- 19 -->
<g id="node20" class="node"><title>19</title>
<path fill="none" stroke="#56d8a9" stroke-width="2" d="M590,-108C590,-108 560,-108 560,-108 554,-108 548,-102 548,-96 548,-96 548,-84 548,-84 548,-78 554,-72 560,-72 560,-72 590,-72 590,-72 596,-72 602,-78 602,-84 602,-84 602,-96 602,-96 602,-102 596,-108 590,-108"/>
<text text-anchor="middle" x="575" y="-87.5" font-family="sans" font-size="10.00">multiqc</text>
</g>
<!-- 1&#45;&gt;19 -->
<g id="edge20" class="edge"><title>1&#45;&gt;19</title>
<path fill="none" stroke="grey" stroke-width="2" d="M126.133,-145.671C129.124,-145.078 132.092,-144.517 135,-144 283.139,-117.675 461.701,-100.642 537.767,-94.0662"/>
<polygon fill="grey" stroke="grey" points="538.141,-97.5471 547.807,-93.2079 537.545,-90.5726 538.141,-97.5471"/>
</g>
<!-- 2 -->
<g id="node3" class="node"><title>2</title>
<path fill="none" stroke="#56d873" stroke-width="2" d="M258,-180C258,-180 156,-180 156,-180 150,-180 144,-174 144,-168 144,-168 144,-156 144,-156 144,-150 150,-144 156,-144 156,-144 258,-144 258,-144 264,-144 270,-150 270,-156 270,-156 270,-168 270,-168 270,-174 264,-180 258,-180"/>
<text text-anchor="middle" x="207" y="-165" font-family="sans" font-size="10.00">qualimap</text>
<text text-anchor="middle" x="207" y="-154" font-family="sans" font-size="10.00">sample: SRR12365593</text>
</g>
<!-- 2&#45;&gt;0 -->
<g id="edge2" class="edge"><title>2&#45;&gt;0</title>
<path fill="none" stroke="grey" stroke-width="2" d="M241.826,-143.837C284.771,-123.432 360.501,-89.8957 429,-72 561.798,-37.3057 725.24,-24.7964 797.553,-20.7434"/>
<polygon fill="grey" stroke="grey" points="798.155,-24.2162 807.952,-20.1842 797.779,-17.2263 798.155,-24.2162"/>
</g>
<!-- 2&#45;&gt;19 -->
<g id="edge21" class="edge"><title>2&#45;&gt;19</title>
<path fill="none" stroke="grey" stroke-width="2" d="M270.173,-145.878C273.154,-145.229 276.108,-144.6 279,-144 371.685,-124.775 481.563,-106.196 537.786,-96.992"/>
<polygon fill="grey" stroke="grey" points="538.662,-100.395 547.969,-95.3316 537.536,-93.4866 538.662,-100.395"/>
</g>
<!-- 3 -->
<g id="node4" class="node"><title>3</title>
<path fill="none" stroke="#56d873" stroke-width="2" d="M402,-180C402,-180 300,-180 300,-180 294,-180 288,-174 288,-168 288,-168 288,-156 288,-156 288,-150 294,-144 300,-144 300,-144 402,-144 402,-144 408,-144 414,-150 414,-156 414,-156 414,-168 414,-168 414,-174 408,-180 402,-180"/>
<text text-anchor="middle" x="351" y="-165" font-family="sans" font-size="10.00">qualimap</text>
<text text-anchor="middle" x="351" y="-154" font-family="sans" font-size="10.00">sample: SRR12365594</text>
</g>
<!-- 3&#45;&gt;0 -->
<g id="edge3" class="edge"><title>3&#45;&gt;0</title>
<path fill="none" stroke="grey" stroke-width="2" d="M374.715,-143.96C404.386,-123.515 457.457,-89.7763 508,-72 609.035,-36.4651 736.117,-24.5832 797.884,-20.746"/>
<polygon fill="grey" stroke="grey" points="798.152,-24.2364 807.93,-20.1578 797.743,-17.2484 798.152,-24.2364"/>
</g>
<!-- 3&#45;&gt;19 -->
<g id="edge22" class="edge"><title>3&#45;&gt;19</title>
<path fill="none" stroke="grey" stroke-width="2" d="M405.51,-143.966C446.704,-131.093 502.133,-113.771 538.209,-102.497"/>
<polygon fill="grey" stroke="grey" points="539.342,-105.81 547.843,-99.4867 537.254,-99.1288 539.342,-105.81"/>
</g>
<!-- 4 -->
<g id="node5" class="node"><title>4</title>
<path fill="none" stroke="#56d873" stroke-width="2" d="M546,-180C546,-180 444,-180 444,-180 438,-180 432,-174 432,-168 432,-168 432,-156 432,-156 432,-150 438,-144 444,-144 444,-144 546,-144 546,-144 552,-144 558,-150 558,-156 558,-156 558,-168 558,-168 558,-174 552,-180 546,-180"/>
<text text-anchor="middle" x="495" y="-165" font-family="sans" font-size="10.00">qualimap</text>
<text text-anchor="middle" x="495" y="-154" font-family="sans" font-size="10.00">sample: SRR12365595</text>
</g>
<!-- 4&#45;&gt;0 -->
<g id="edge4" class="edge"><title>4&#45;&gt;0</title>
<path fill="none" stroke="grey" stroke-width="2" d="M498.538,-143.936C503.72,-123.468 515.437,-89.7062 539,-72 579.294,-41.722 727.197,-26.9671 797.457,-21.5436"/>
<polygon fill="grey" stroke="grey" points="797.928,-25.0182 807.639,-20.7813 797.406,-18.0377 797.928,-25.0182"/>
</g>
<!-- 4&#45;&gt;19 -->
<g id="edge23" class="edge"><title>4&#45;&gt;19</title>
<path fill="none" stroke="grey" stroke-width="2" d="M514.775,-143.697C524.754,-134.965 537.011,-124.24 547.857,-114.75"/>
<polygon fill="grey" stroke="grey" points="550.231,-117.323 555.452,-108.104 545.622,-112.055 550.231,-117.323"/>
</g>
<!-- 5 -->
<g id="node6" class="node"><title>5</title>
<path fill="none" stroke="#56d873" stroke-width="2" d="M690,-180C690,-180 588,-180 588,-180 582,-180 576,-174 576,-168 576,-168 576,-156 576,-156 576,-150 582,-144 588,-144 588,-144 690,-144 690,-144 696,-144 702,-150 702,-156 702,-156 702,-168 702,-168 702,-174 696,-180 690,-180"/>
<text text-anchor="middle" x="639" y="-165" font-family="sans" font-size="10.00">qualimap</text>
<text text-anchor="middle" x="639" y="-154" font-family="sans" font-size="10.00">sample: SRR12365596</text>
</g>
<!-- 5&#45;&gt;0 -->
<g id="edge5" class="edge"><title>5&#45;&gt;0</title>
<path fill="none" stroke="grey" stroke-width="2" d="M643.016,-143.829C648.534,-123.889 660.333,-91.277 682,-72 714.642,-42.9586 764.043,-29.645 797.823,-23.6663"/>
<polygon fill="grey" stroke="grey" points="798.466,-27.1076 807.769,-22.037 797.334,-20.1997 798.466,-27.1076"/>
</g>
<!-- 5&#45;&gt;19 -->
<g id="edge24" class="edge"><title>5&#45;&gt;19</title>
<path fill="none" stroke="grey" stroke-width="2" d="M623.18,-143.697C615.43,-135.22 605.961,-124.864 597.476,-115.583"/>
<polygon fill="grey" stroke="grey" points="599.969,-113.123 590.638,-108.104 594.803,-117.846 599.969,-113.123"/>
</g>
<!-- 6 -->
<g id="node7" class="node"><title>6</title>
<path fill="none" stroke="#56d873" stroke-width="2" d="M834,-180C834,-180 732,-180 732,-180 726,-180 720,-174 720,-168 720,-168 720,-156 720,-156 720,-150 726,-144 732,-144 732,-144 834,-144 834,-144 840,-144 846,-150 846,-156 846,-156 846,-168 846,-168 846,-174 840,-180 834,-180"/>
<text text-anchor="middle" x="783" y="-165" font-family="sans" font-size="10.00">qualimap</text>
<text text-anchor="middle" x="783" y="-154" font-family="sans" font-size="10.00">sample: SRR12365597</text>
</g>
<!-- 6&#45;&gt;0 -->
<g id="edge6" class="edge"><title>6&#45;&gt;0</title>
<path fill="none" stroke="grey" stroke-width="2" d="M733.438,-143.846C717.308,-135.636 701.202,-124.009 692,-108 684.026,-94.1284 682.861,-85.1333 692,-72 715.71,-37.9269 764.013,-25.7098 797.894,-21.358"/>
<polygon fill="grey" stroke="grey" points="798.35,-24.8289 807.902,-20.2445 797.576,-17.8718 798.35,-24.8289"/>
</g>
<!-- 6&#45;&gt;19 -->
<g id="edge25" class="edge"><title>6&#45;&gt;19</title>
<path fill="none" stroke="grey" stroke-width="2" d="M732.383,-143.966C695.222,-131.459 645.585,-114.754 612.07,-103.475"/>
<polygon fill="grey" stroke="grey" points="612.812,-100.032 602.218,-100.16 610.579,-106.667 612.812,-100.032"/>
</g>
<!-- 7 -->
<g id="node8" class="node"><title>7</title>
<path fill="none" stroke="#56d873" stroke-width="2" d="M978,-180C978,-180 876,-180 876,-180 870,-180 864,-174 864,-168 864,-168 864,-156 864,-156 864,-150 870,-144 876,-144 876,-144 978,-144 978,-144 984,-144 990,-150 990,-156 990,-156 990,-168 990,-168 990,-174 984,-180 978,-180"/>
<text text-anchor="middle" x="927" y="-165" font-family="sans" font-size="10.00">qualimap</text>
<text text-anchor="middle" x="927" y="-154" font-family="sans" font-size="10.00">sample: SRR12365598</text>
</g>
<!-- 7&#45;&gt;0 -->
<g id="edge7" class="edge"><title>7&#45;&gt;0</title>
<path fill="none" stroke="grey" stroke-width="2" d="M863.833,-145.957C807.831,-132.32 734.242,-113.534 730,-108 720.266,-95.3014 721.614,-85.6264 730,-72 744.702,-48.1098 773.861,-34.5976 797.728,-27.2047"/>
<polygon fill="grey" stroke="grey" points="798.917,-30.5053 807.575,-24.3986 796.999,-23.7733 798.917,-30.5053"/>
</g>
<!-- 7&#45;&gt;19 -->
<g id="edge26" class="edge"><title>7&#45;&gt;19</title>
<path fill="none" stroke="grey" stroke-width="2" d="M863.82,-145.914C860.841,-145.255 857.889,-144.614 855,-144 768.347,-125.579 665.925,-106.997 612.189,-97.4923"/>
<polygon fill="grey" stroke="grey" points="612.566,-94.0048 602.11,-95.7151 611.351,-100.898 612.566,-94.0048"/>
</g>
<!-- 8 -->
<g id="node9" class="node"><title>8</title>
<path fill="none" stroke="#56d873" stroke-width="2" d="M1122,-180C1122,-180 1020,-180 1020,-180 1014,-180 1008,-174 1008,-168 1008,-168 1008,-156 1008,-156 1008,-150 1014,-144 1020,-144 1020,-144 1122,-144 1122,-144 1128,-144 1134,-150 1134,-156 1134,-156 1134,-168 1134,-168 1134,-174 1128,-180 1122,-180"/>
<text text-anchor="middle" x="1071" y="-165" font-family="sans" font-size="10.00">qualimap</text>
<text text-anchor="middle" x="1071" y="-154" font-family="sans" font-size="10.00">sample: SRR12365599</text>
</g>
<!-- 8&#45;&gt;0 -->
<g id="edge8" class="edge"><title>8&#45;&gt;0</title>
<path fill="none" stroke="grey" stroke-width="2" d="M1007.85,-145.785C1004.86,-145.161 1001.9,-144.563 999,-144 946.92,-133.896 797.569,-148.242 763,-108 752.574,-95.8632 755.781,-86.2787 763,-72 770.698,-56.774 785.06,-44.852 798.944,-36.2039"/>
<polygon fill="grey" stroke="grey" points="801.032,-39.0388 807.923,-30.9917 797.518,-32.9848 801.032,-39.0388"/>
</g>
<!-- 8&#45;&gt;19 -->
<g id="edge27" class="edge"><title>8&#45;&gt;19</title>
<path fill="none" stroke="grey" stroke-width="2" d="M1007.86,-145.688C1004.87,-145.09 1001.91,-144.523 999,-144 924.895,-130.66 701.709,-105.15 612.469,-95.1593"/>
<polygon fill="grey" stroke="grey" points="612.596,-91.6518 602.269,-94.0197 611.819,-98.6085 612.596,-91.6518"/>
</g>
<!-- 9 -->
<g id="node10" class="node"><title>9</title>
<path fill="none" stroke="#56d873" stroke-width="2" d="M1697,-180C1697,-180 1595,-180 1595,-180 1589,-180 1583,-174 1583,-168 1583,-168 1583,-156 1583,-156 1583,-150 1589,-144 1595,-144 1595,-144 1697,-144 1697,-144 1703,-144 1709,-150 1709,-156 1709,-156 1709,-168 1709,-168 1709,-174 1703,-180 1697,-180"/>
<text text-anchor="middle" x="1646" y="-165" font-family="sans" font-size="10.00">qualimap</text>
<text text-anchor="middle" x="1646" y="-154" font-family="sans" font-size="10.00">sample: SRR12365600</text>
</g>
<!-- 9&#45;&gt;0 -->
<g id="edge9" class="edge"><title>9&#45;&gt;0</title>
<path fill="none" stroke="grey" stroke-width="2" d="M1709.24,-157.416C1819.24,-150.531 2036.29,-133.813 2059,-108 2069.57,-95.9878 2070.07,-83.5558 2059,-72 2016.93,-28.0683 1072.49,-20.3292 872.141,-19.1801"/>
<polygon fill="grey" stroke="grey" points="872.13,-15.6801 862.11,-19.1246 872.091,-22.68 872.13,-15.6801"/>
</g>
<!-- 9&#45;&gt;19 -->
<g id="edge28" class="edge"><title>9&#45;&gt;19</title>
<path fill="none" stroke="grey" stroke-width="2" d="M1582.78,-157.863C1437.77,-150.523 1070.05,-131.092 763,-108 710.576,-104.057 650.031,-98.3805 612.129,-94.6911"/>
<polygon fill="grey" stroke="grey" points="612.358,-91.1968 602.064,-93.7062 611.676,-98.1635 612.358,-91.1968"/>
</g>
<!-- 10 -->
<g id="node11" class="node"><title>10</title>
<path fill="none" stroke="#afd856" stroke-width="2" d="M886,-108C886,-108 784,-108 784,-108 778,-108 772,-102 772,-96 772,-96 772,-84 772,-84 772,-78 778,-72 784,-72 784,-72 886,-72 886,-72 892,-72 898,-78 898,-84 898,-84 898,-96 898,-96 898,-102 892,-108 886,-108"/>
<text text-anchor="middle" x="835" y="-93" font-family="sans" font-size="10.00">bam_index</text>
<text text-anchor="middle" x="835" y="-82" font-family="sans" font-size="10.00">sample: SRR12365592</text>
</g>
<!-- 10&#45;&gt;0 -->
<g id="edge10" class="edge"><title>10&#45;&gt;0</title>
<path fill="none" stroke="grey" stroke-width="2" d="M835,-71.6966C835,-63.9827 835,-54.7125 835,-46.1124"/>
<polygon fill="grey" stroke="grey" points="838.5,-46.1043 835,-36.1043 831.5,-46.1044 838.5,-46.1043"/>
</g>
<!-- 11 -->
<g id="node12" class="node"><title>11</title>
<path fill="none" stroke="#afd856" stroke-width="2" d="M1030,-108C1030,-108 928,-108 928,-108 922,-108 916,-102 916,-96 916,-96 916,-84 916,-84 916,-78 922,-72 928,-72 928,-72 1030,-72 1030,-72 1036,-72 1042,-78 1042,-84 1042,-84 1042,-96 1042,-96 1042,-102 1036,-108 1030,-108"/>
<text text-anchor="middle" x="979" y="-93" font-family="sans" font-size="10.00">bam_index</text>
<text text-anchor="middle" x="979" y="-82" font-family="sans" font-size="10.00">sample: SRR12365593</text>
</g>
<!-- 11&#45;&gt;0 -->
<g id="edge11" class="edge"><title>11&#45;&gt;0</title>
<path fill="none" stroke="grey" stroke-width="2" d="M943.774,-71.8761C921.771,-61.1805 893.506,-47.4404 871.303,-36.6474"/>
<polygon fill="grey" stroke="grey" points="872.719,-33.444 862.195,-32.2198 869.659,-39.7396 872.719,-33.444"/>
</g>
<!-- 12 -->
<g id="node13" class="node"><title>12</title>
<path fill="none" stroke="#afd856" stroke-width="2" d="M1174,-108C1174,-108 1072,-108 1072,-108 1066,-108 1060,-102 1060,-96 1060,-96 1060,-84 1060,-84 1060,-78 1066,-72 1072,-72 1072,-72 1174,-72 1174,-72 1180,-72 1186,-78 1186,-84 1186,-84 1186,-96 1186,-96 1186,-102 1180,-108 1174,-108"/>
<text text-anchor="middle" x="1123" y="-93" font-family="sans" font-size="10.00">bam_index</text>
<text text-anchor="middle" x="1123" y="-82" font-family="sans" font-size="10.00">sample: SRR12365594</text>
</g>
<!-- 12&#45;&gt;0 -->
<g id="edge12" class="edge"><title>12&#45;&gt;0</title>
<path fill="none" stroke="grey" stroke-width="2" d="M1059.8,-73.6382C1002.26,-59.6528 919.27,-39.4823 871.885,-27.965"/>
<polygon fill="grey" stroke="grey" points="872.597,-24.5362 862.053,-25.5753 870.943,-31.3382 872.597,-24.5362"/>
</g>
<!-- 13 -->
<g id="node14" class="node"><title>13</title>
<path fill="none" stroke="#afd856" stroke-width="2" d="M1318,-108C1318,-108 1216,-108 1216,-108 1210,-108 1204,-102 1204,-96 1204,-96 1204,-84 1204,-84 1204,-78 1210,-72 1216,-72 1216,-72 1318,-72 1318,-72 1324,-72 1330,-78 1330,-84 1330,-84 1330,-96 1330,-96 1330,-102 1324,-108 1318,-108"/>
<text text-anchor="middle" x="1267" y="-93" font-family="sans" font-size="10.00">bam_index</text>
<text text-anchor="middle" x="1267" y="-82" font-family="sans" font-size="10.00">sample: SRR12365595</text>
</g>
<!-- 13&#45;&gt;0 -->
<g id="edge13" class="edge"><title>13&#45;&gt;0</title>
<path fill="none" stroke="grey" stroke-width="2" d="M1203.85,-73.7664C1200.86,-73.1476 1197.9,-72.5551 1195,-72 1078.03,-49.6243 938.128,-31.4641 872.486,-23.4436"/>
<polygon fill="grey" stroke="grey" points="872.579,-19.9293 862.23,-22.1993 871.736,-26.8783 872.579,-19.9293"/>
</g>
<!-- 14 -->
<g id="node15" class="node"><title>14</title>
<path fill="none" stroke="#afd856" stroke-width="2" d="M1462,-108C1462,-108 1360,-108 1360,-108 1354,-108 1348,-102 1348,-96 1348,-96 1348,-84 1348,-84 1348,-78 1354,-72 1360,-72 1360,-72 1462,-72 1462,-72 1468,-72 1474,-78 1474,-84 1474,-84 1474,-96 1474,-96 1474,-102 1468,-108 1462,-108"/>
<text text-anchor="middle" x="1411" y="-93" font-family="sans" font-size="10.00">bam_index</text>
<text text-anchor="middle" x="1411" y="-82" font-family="sans" font-size="10.00">sample: SRR12365596</text>
</g>
<!-- 14&#45;&gt;0 -->
<g id="edge14" class="edge"><title>14&#45;&gt;0</title>
<path fill="none" stroke="grey" stroke-width="2" d="M1347.88,-73.6169C1344.88,-73.0381 1341.91,-72.4949 1339,-72 1165.77,-42.5644 956.098,-26.8005 872.263,-21.2911"/>
<polygon fill="grey" stroke="grey" points="872.415,-17.7937 862.209,-20.6402 871.962,-24.7791 872.415,-17.7937"/>
</g>
<!-- 15 -->
<g id="node16" class="node"><title>15</title>
<path fill="none" stroke="#afd856" stroke-width="2" d="M1606,-108C1606,-108 1504,-108 1504,-108 1498,-108 1492,-102 1492,-96 1492,-96 1492,-84 1492,-84 1492,-78 1498,-72 1504,-72 1504,-72 1606,-72 1606,-72 1612,-72 1618,-78 1618,-84 1618,-84 1618,-96 1618,-96 1618,-102 1612,-108 1606,-108"/>
<text text-anchor="middle" x="1555" y="-93" font-family="sans" font-size="10.00">bam_index</text>
<text text-anchor="middle" x="1555" y="-82" font-family="sans" font-size="10.00">sample: SRR12365597</text>
</g>
<!-- 15&#45;&gt;0 -->
<g id="edge15" class="edge"><title>15&#45;&gt;0</title>
<path fill="none" stroke="grey" stroke-width="2" d="M1491.89,-73.5329C1488.89,-72.9766 1485.92,-72.4611 1483,-72 1252.53,-35.5776 971.74,-23.4185 872.174,-20.0868"/>
<polygon fill="grey" stroke="grey" points="872.132,-16.5837 862.023,-19.7571 871.904,-23.58 872.132,-16.5837"/>
</g>
<!-- 16 -->
<g id="node17" class="node"><title>16</title>
<path fill="none" stroke="#afd856" stroke-width="2" d="M1750,-108C1750,-108 1648,-108 1648,-108 1642,-108 1636,-102 1636,-96 1636,-96 1636,-84 1636,-84 1636,-78 1642,-72 1648,-72 1648,-72 1750,-72 1750,-72 1756,-72 1762,-78 1762,-84 1762,-84 1762,-96 1762,-96 1762,-102 1756,-108 1750,-108"/>
<text text-anchor="middle" x="1699" y="-93" font-family="sans" font-size="10.00">bam_index</text>
<text text-anchor="middle" x="1699" y="-82" font-family="sans" font-size="10.00">sample: SRR12365598</text>
</g>
<!-- 16&#45;&gt;0 -->
<g id="edge16" class="edge"><title>16&#45;&gt;0</title>
<path fill="none" stroke="grey" stroke-width="2" d="M1635.9,-73.4793C1632.9,-72.9373 1629.92,-72.4395 1627,-72 1338.88,-28.6483 986.446,-20.7531 872.461,-19.318"/>
<polygon fill="grey" stroke="grey" points="872.225,-15.8151 862.185,-19.1983 872.143,-22.8146 872.225,-15.8151"/>
</g>
<!-- 17 -->
<g id="node18" class="node"><title>17</title>
<path fill="none" stroke="#afd856" stroke-width="2" d="M1894,-108C1894,-108 1792,-108 1792,-108 1786,-108 1780,-102 1780,-96 1780,-96 1780,-84 1780,-84 1780,-78 1786,-72 1792,-72 1792,-72 1894,-72 1894,-72 1900,-72 1906,-78 1906,-84 1906,-84 1906,-96 1906,-96 1906,-102 1900,-108 1894,-108"/>
<text text-anchor="middle" x="1843" y="-93" font-family="sans" font-size="10.00">bam_index</text>
<text text-anchor="middle" x="1843" y="-82" font-family="sans" font-size="10.00">sample: SRR12365599</text>
</g>
<!-- 17&#45;&gt;0 -->
<g id="edge17" class="edge"><title>17&#45;&gt;0</title>
<path fill="none" stroke="grey" stroke-width="2" d="M1779.9,-73.4421C1776.9,-72.91 1773.92,-72.4245 1771,-72 1424.72,-21.7129 999.942,-18.5088 872.715,-18.773"/>
<polygon fill="grey" stroke="grey" points="872.348,-15.274 862.359,-18.8038 872.369,-22.2739 872.348,-15.274"/>
</g>
<!-- 18 -->
<g id="node19" class="node"><title>18</title>
<path fill="none" stroke="#afd856" stroke-width="2" d="M2038,-108C2038,-108 1936,-108 1936,-108 1930,-108 1924,-102 1924,-96 1924,-96 1924,-84 1924,-84 1924,-78 1930,-72 1936,-72 1936,-72 2038,-72 2038,-72 2044,-72 2050,-78 2050,-84 2050,-84 2050,-96 2050,-96 2050,-102 2044,-108 2038,-108"/>
<text text-anchor="middle" x="1987" y="-93" font-family="sans" font-size="10.00">bam_index</text>
<text text-anchor="middle" x="1987" y="-82" font-family="sans" font-size="10.00">sample: SRR12365600</text>
</g>
<!-- 18&#45;&gt;0 -->
<g id="edge18" class="edge"><title>18&#45;&gt;0</title>
<path fill="none" stroke="grey" stroke-width="2" d="M1923.91,-73.4147C1920.91,-72.89 1917.92,-72.4135 1915,-72 1707.2,-42.6208 1038.53,-24.1313 872.554,-19.9206"/>
<polygon fill="grey" stroke="grey" points="872.444,-16.4169 862.359,-19.664 872.267,-23.4146 872.444,-16.4169"/>
</g>
<!-- 19&#45;&gt;0 -->
<g id="edge19" class="edge"><title>19&#45;&gt;0</title>
<path fill="none" stroke="grey" stroke-width="2" d="M602.125,-77.0604C606.711,-75.2422 611.458,-73.4813 616,-72 678.835,-51.5077 754.121,-34.979 798.054,-26.108"/>
<polygon fill="grey" stroke="grey" points="798.872,-29.5139 807.993,-24.124 797.501,-22.6494 798.872,-29.5139"/>
</g>
</g>
</svg>
