<?xml version="1.0" encoding="UTF-8" standalone="no"?>
<!DOCTYPE svg PUBLIC "-//W3C//DTD SVG 1.1//EN"
 "http://www.w3.org/Graphics/SVG/1.1/DTD/svg11.dtd">
<!-- Generated by graphviz version 2.30.1 (20180420.1509)
 -->
<!-- Title: snakemake_dag Pages: 1 -->
<svg width="209pt" height="404pt"
 viewBox="0.00 0.00 209.00 404.00" xmlns="http://www.w3.org/2000/svg" xmlns:xlink="http://www.w3.org/1999/xlink">
<g id="graph0" class="graph" transform="scale(1 1) rotate(0) translate(4 400)">
<title>snakemake_dag</title>
<polygon fill="white" stroke="white" points="-4,5 -4,-400 206,-400 206,5 -4,5"/>
<!-- 0 -->
<g id="node1" class="node"><title>0</title>
<path fill="none" stroke="#d88d56" stroke-width="2" d="M100,-36C100,-36 70,-36 70,-36 64,-36 58,-30 58,-24 58,-24 58,-12 58,-12 58,-6 64,-0 70,-0 70,-0 100,-0 100,-0 106,-0 112,-6 112,-12 112,-12 112,-24 112,-24 112,-30 106,-36 100,-36"/>
<text text-anchor="middle" x="85" y="-15.5" font-family="sans" font-size="10.00">target</text>
</g>
<!-- 1 -->
<g id="node2" class="node"><title>1</title>
<path fill="none" stroke="#56d873" stroke-width="2" d="M104,-180C104,-180 66,-180 66,-180 60,-180 54,-174 54,-168 54,-168 54,-156 54,-156 54,-150 60,-144 66,-144 66,-144 104,-144 104,-144 110,-144 116,-150 116,-156 116,-156 116,-168 116,-168 116,-174 110,-180 104,-180"/>
<text text-anchor="middle" x="85" y="-159.5" font-family="sans" font-size="10.00">qualimap</text>
</g>
<!-- 1&#45;&gt;0 -->
<g id="edge1" class="edge"><title>1&#45;&gt;0</title>
<path fill="none" stroke="grey" stroke-width="2" d="M69.3901,-143.774C61.6271,-134.03 53.0541,-121.184 49,-108 44.2972,-92.7067 44.2972,-87.2933 49,-72 52.0089,-62.2153 57.507,-52.6161 63.3157,-44.3336"/>
<polygon fill="grey" stroke="grey" points="66.1948,-46.3279 69.3901,-36.2264 60.5928,-42.1306 66.1948,-46.3279"/>
</g>
<!-- 3 -->
<g id="node4" class="node"><title>3</title>
<path fill="none" stroke="#5692d8" stroke-width="2" d="M100,-108C100,-108 70,-108 70,-108 64,-108 58,-102 58,-96 58,-96 58,-84 58,-84 58,-78 64,-72 70,-72 70,-72 100,-72 100,-72 106,-72 112,-78 112,-84 112,-84 112,-96 112,-96 112,-102 106,-108 100,-108"/>
<text text-anchor="middle" x="85" y="-87.5" font-family="sans" font-size="10.00">multiqc</text>
</g>
<!-- 1&#45;&gt;3 -->
<g id="edge6" class="edge"><title>1&#45;&gt;3</title>
<path fill="none" stroke="grey" stroke-width="2" d="M85,-143.697C85,-135.983 85,-126.712 85,-118.112"/>
<polygon fill="grey" stroke="grey" points="88.5001,-118.104 85,-108.104 81.5001,-118.104 88.5001,-118.104"/>
</g>
<!-- 2 -->
<g id="node3" class="node"><title>2</title>
<path fill="none" stroke="#afd856" stroke-width="2" d="M189.25,-108C189.25,-108 142.75,-108 142.75,-108 136.75,-108 130.75,-102 130.75,-96 130.75,-96 130.75,-84 130.75,-84 130.75,-78 136.75,-72 142.75,-72 142.75,-72 189.25,-72 189.25,-72 195.25,-72 201.25,-78 201.25,-84 201.25,-84 201.25,-96 201.25,-96 201.25,-102 195.25,-108 189.25,-108"/>
<text text-anchor="middle" x="166" y="-87.5" font-family="sans" font-size="10.00">bam_index</text>
</g>
<!-- 2&#45;&gt;0 -->
<g id="edge2" class="edge"><title>2&#45;&gt;0</title>
<path fill="none" stroke="grey" stroke-width="2" d="M145.978,-71.6966C135.874,-62.9655 123.464,-52.2405 112.482,-42.7503"/>
<polygon fill="grey" stroke="grey" points="114.647,-39.9948 104.792,-36.1043 110.07,-45.2912 114.647,-39.9948"/>
</g>
<!-- 3&#45;&gt;0 -->
<g id="edge3" class="edge"><title>3&#45;&gt;0</title>
<path fill="none" stroke="grey" stroke-width="2" d="M85,-71.6966C85,-63.9827 85,-54.7125 85,-46.1124"/>
<polygon fill="grey" stroke="grey" points="88.5001,-46.1043 85,-36.1043 81.5001,-46.1044 88.5001,-46.1043"/>
</g>
<!-- 4 -->
<g id="node5" class="node"><title>4</title>
<path fill="none" stroke="#56c9d8" stroke-width="2" d="M136,-252C136,-252 92,-252 92,-252 86,-252 80,-246 80,-240 80,-240 80,-228 80,-228 80,-222 86,-216 92,-216 92,-216 136,-216 136,-216 142,-216 148,-222 148,-228 148,-228 148,-240 148,-240 148,-246 142,-252 136,-252"/>
<text text-anchor="middle" x="114" y="-231.5" font-family="sans" font-size="10.00">STAR_map</text>
</g>
<!-- 4&#45;&gt;1 -->
<g id="edge4" class="edge"><title>4&#45;&gt;1</title>
<path fill="none" stroke="grey" stroke-width="2" d="M106.831,-215.697C103.565,-207.813 99.626,-198.304 95.9978,-189.546"/>
<polygon fill="grey" stroke="grey" points="99.147,-188.003 92.0861,-180.104 92.68,-190.683 99.147,-188.003"/>
</g>
<!-- 4&#45;&gt;2 -->
<g id="edge5" class="edge"><title>4&#45;&gt;2</title>
<path fill="none" stroke="grey" stroke-width="2" d="M120.272,-215.871C129.213,-191.457 145.703,-146.426 156.246,-117.635"/>
<polygon fill="grey" stroke="grey" points="159.553,-118.783 159.705,-108.189 152.98,-116.376 159.553,-118.783"/>
</g>
<!-- 5 -->
<g id="node6" class="node"><title>5</title>
<path fill="none" stroke="#70d856" stroke-width="2" d="M93,-324C93,-324 45,-324 45,-324 39,-324 33,-318 33,-312 33,-312 33,-300 33,-300 33,-294 39,-288 45,-288 45,-288 93,-288 93,-288 99,-288 105,-294 105,-300 105,-300 105,-312 105,-312 105,-318 99,-324 93,-324"/>
<text text-anchor="middle" x="69" y="-303.5" font-family="sans" font-size="10.00">bbduk_trim</text>
</g>
<!-- 5&#45;&gt;4 -->
<g id="edge7" class="edge"><title>5&#45;&gt;4</title>
<path fill="none" stroke="grey" stroke-width="2" d="M80.1236,-287.697C85.355,-279.559 91.6999,-269.689 97.4778,-260.701"/>
<polygon fill="grey" stroke="grey" points="100.541,-262.409 103.004,-252.104 94.6526,-258.623 100.541,-262.409"/>
</g>
<!-- 6 -->
<g id="node7" class="node"><title>6</title>
<path fill="none" stroke="#d8cb56" stroke-width="2" d="M185,-324C185,-324 135,-324 135,-324 129,-324 123,-318 123,-312 123,-312 123,-300 123,-300 123,-294 129,-288 135,-288 135,-288 185,-288 185,-288 191,-288 197,-294 197,-300 197,-300 197,-312 197,-312 197,-318 191,-324 185,-324"/>
<text text-anchor="middle" x="160" y="-303.5" font-family="sans" font-size="10.00">STAR_index</text>
</g>
<!-- 6&#45;&gt;4 -->
<g id="edge8" class="edge"><title>6&#45;&gt;4</title>
<path fill="none" stroke="grey" stroke-width="2" d="M148.629,-287.697C143.282,-279.559 136.796,-269.689 130.889,-260.701"/>
<polygon fill="grey" stroke="grey" points="133.657,-258.539 125.24,-252.104 127.807,-262.384 133.657,-258.539"/>
</g>
<!-- 7 -->
<g id="node8" class="node"><title>7</title>
<path fill="none" stroke="#56d8a9" stroke-width="2" d="M42,-396C42,-396 12,-396 12,-396 6,-396 0,-390 0,-384 0,-384 0,-372 0,-372 0,-366 6,-360 12,-360 12,-360 42,-360 42,-360 48,-360 54,-366 54,-372 54,-372 54,-384 54,-384 54,-390 48,-396 42,-396"/>
<text text-anchor="middle" x="27" y="-375.5" font-family="sans" font-size="10.00">fastqc</text>
</g>
<!-- 7&#45;&gt;5 -->
<g id="edge10" class="edge"><title>7&#45;&gt;5</title>
<path fill="none" stroke="grey" stroke-width="2" d="M37.382,-359.697C42.2647,-351.559 48.1866,-341.689 53.5792,-332.701"/>
<polygon fill="grey" stroke="grey" points="56.5936,-334.48 58.7374,-324.104 50.5912,-330.879 56.5936,-334.48"/>
</g>
<!-- 8 -->
<g id="node9" class="node"><title>8</title>
<path fill="none" stroke="#d85656" stroke-width="2" d="M140,-396C140,-396 84,-396 84,-396 78,-396 72,-390 72,-384 72,-384 72,-372 72,-372 72,-366 78,-360 84,-360 84,-360 140,-360 140,-360 146,-360 152,-366 152,-372 152,-372 152,-384 152,-384 152,-390 146,-396 140,-396"/>
<text text-anchor="middle" x="112" y="-375.5" font-family="sans" font-size="10.00">create_polyA</text>
</g>
<!-- 8&#45;&gt;5 -->
<g id="edge9" class="edge"><title>8&#45;&gt;5</title>
<path fill="none" stroke="grey" stroke-width="2" d="M101.371,-359.697C96.3719,-351.559 90.309,-341.689 84.7879,-332.701"/>
<polygon fill="grey" stroke="grey" points="87.7234,-330.793 79.5069,-324.104 81.7589,-334.457 87.7234,-330.793"/>
</g>
</g>
</svg>
