<?xml version="1.0" encoding="UTF-8" standalone="no"?>
<!DOCTYPE svg PUBLIC "-//W3C//DTD SVG 1.1//EN"
 "http://www.w3.org/Graphics/SVG/1.1/DTD/svg11.dtd">
<!-- Generated by graphviz version 2.30.1 (20180420.1509)
 -->
<!-- Title: snakemake_dag Pages: 1 -->
<svg width="183pt" height="188pt"
 viewBox="0.00 0.00 183.00 188.00" xmlns="http://www.w3.org/2000/svg" xmlns:xlink="http://www.w3.org/1999/xlink">
<g id="graph0" class="graph" transform="scale(1 1) rotate(0) translate(4 184)">
<title>snakemake_dag</title>
<polygon fill="white" stroke="white" points="-4,5 -4,-184 180,-184 180,5 -4,5"/>
<!-- 0 -->
<g id="node1" class="node"><title>0</title>
<path fill="none" stroke="#56d8a9" stroke-width="2" d="M74,-36C74,-36 44,-36 44,-36 38,-36 32,-30 32,-24 32,-24 32,-12 32,-12 32,-6 38,-0 44,-0 44,-0 74,-0 74,-0 80,-0 86,-6 86,-12 86,-12 86,-24 86,-24 86,-30 80,-36 74,-36"/>
<text text-anchor="middle" x="59" y="-15.5" font-family="sans" font-size="10.00">target</text>
</g>
<!-- 1 -->
<g id="node2" class="node"><title>1</title>
<path fill="none" stroke="#70d856" stroke-width="2" d="M50,-180C50,-180 12,-180 12,-180 6,-180 0,-174 0,-168 0,-168 0,-156 0,-156 0,-150 6,-144 12,-144 12,-144 50,-144 50,-144 56,-144 62,-150 62,-156 62,-156 62,-168 62,-168 62,-174 56,-180 50,-180"/>
<text text-anchor="middle" x="31" y="-159.5" font-family="sans" font-size="10.00">qualimap</text>
</g>
<!-- 1&#45;&gt;0 -->
<g id="edge3" class="edge"><title>1&#45;&gt;0</title>
<path fill="none" stroke="grey" stroke-width="2" d="M25.657,-143.867C20.8431,-125.643 15.5674,-96.1703 23,-72 26.0089,-62.2153 31.507,-52.6161 37.3157,-44.3336"/>
<polygon fill="grey" stroke="grey" points="40.1948,-46.3279 43.3901,-36.2264 34.5928,-42.1306 40.1948,-46.3279"/>
</g>
<!-- 3 -->
<g id="node4" class="node"><title>3</title>
<path fill="none" stroke="#d8cb56" stroke-width="2" d="M74,-108C74,-108 44,-108 44,-108 38,-108 32,-102 32,-96 32,-96 32,-84 32,-84 32,-78 38,-72 44,-72 44,-72 74,-72 74,-72 80,-72 86,-78 86,-84 86,-84 86,-96 86,-96 86,-102 80,-108 74,-108"/>
<text text-anchor="middle" x="59" y="-87.5" font-family="sans" font-size="10.00">multiqc</text>
</g>
<!-- 1&#45;&gt;3 -->
<g id="edge4" class="edge"><title>1&#45;&gt;3</title>
<path fill="none" stroke="grey" stroke-width="2" d="M37.9214,-143.697C41.0747,-135.813 44.8783,-126.304 48.3814,-117.546"/>
<polygon fill="grey" stroke="grey" points="51.694,-118.689 52.1583,-108.104 45.1946,-116.089 51.694,-118.689"/>
</g>
<!-- 2 -->
<g id="node3" class="node"><title>2</title>
<path fill="none" stroke="#56d873" stroke-width="2" d="M163.25,-108C163.25,-108 116.75,-108 116.75,-108 110.75,-108 104.75,-102 104.75,-96 104.75,-96 104.75,-84 104.75,-84 104.75,-78 110.75,-72 116.75,-72 116.75,-72 163.25,-72 163.25,-72 169.25,-72 175.25,-78 175.25,-84 175.25,-84 175.25,-96 175.25,-96 175.25,-102 169.25,-108 163.25,-108"/>
<text text-anchor="middle" x="140" y="-87.5" font-family="sans" font-size="10.00">bam_index</text>
</g>
<!-- 2&#45;&gt;0 -->
<g id="edge1" class="edge"><title>2&#45;&gt;0</title>
<path fill="none" stroke="grey" stroke-width="2" d="M119.978,-71.6966C109.874,-62.9655 97.464,-52.2405 86.4825,-42.7503"/>
<polygon fill="grey" stroke="grey" points="88.6468,-39.9948 78.7922,-36.1043 84.0698,-45.2912 88.6468,-39.9948"/>
</g>
<!-- 3&#45;&gt;0 -->
<g id="edge2" class="edge"><title>3&#45;&gt;0</title>
<path fill="none" stroke="grey" stroke-width="2" d="M59,-71.6966C59,-63.9827 59,-54.7125 59,-46.1124"/>
<polygon fill="grey" stroke="grey" points="62.5001,-46.1043 59,-36.1043 55.5001,-46.1044 62.5001,-46.1043"/>
</g>
</g>
</svg>
